/* XPM */
static char *_0789a294a474bf6ad462b796fdaf400hQxcCFZoJq1ZnSKV[] = {
/* columns rows colors chars-per-pixel */
"32 32 118 2 ",
"   c None",
".  c #188D6B",
"X  c #198D6B",
"o  c #198D6C",
"O  c #198E6C",
"+  c #1A8E6C",
"@  c #1B8E6D",
"#  c #1B8F6D",
"$  c #1C8E6D",
"%  c #1C8F6D",
"&  c #1C8F6E",
"*  c #1D8F6E",
"=  c #1E8F6E",
"-  c #1E906F",
";  c #1F906F",
":  c #20906F",
">  c #209070",
",  c #219070",
"<  c #239171",
"1  c #249272",
"2  c #259273",
"3  c #279373",
"4  c #289374",
"5  c #299475",
"6  c #2B9476",
"7  c #2C9576",
"8  c #2C9577",
"9  c #2E9678",
"0  c #2F9678",
"q  c #319779",
"w  c #329779",
"e  c #32977A",
"r  c #33987A",
"t  c #34987B",
"y  c #36997C",
"u  c #37997C",
"i  c #37997D",
"p  c #38997D",
"a  c #399A7E",
"s  c #3B9B7F",
"d  c #3E9C81",
"f  c #409C82",
"g  c #409D82",
"h  c #419D82",
"j  c #439E84",
"k  c #469F85",
"l  c #47A086",
"z  c #48A087",
"x  c #4AA087",
"c  c #4DA189",
"v  c #4EA28A",
"b  c #4FA28A",
"n  c #50A38B",
"m  c #55A58E",
"M  c #56A58E",
"N  c #57A58E",
"B  c #5BA791",
"V  c #5CA791",
"C  c #5DA892",
"Z  c #5FA893",
"A  c #60A994",
"S  c #62AA95",
"D  c #64AB96",
"F  c #65AB97",
"G  c #67AB97",
"H  c #67AC98",
"J  c #68AC98",
"K  c #6CAD9A",
"L  c #6EAE9C",
"P  c #6FAF9C",
"I  c #70AF9D",
"U  c #73B09E",
"Y  c #73B19F",
"T  c #74B09F",
"R  c #74B19F",
"E  c #77B2A1",
"W  c #78B2A1",
"Q  c #79B3A2",
"!  c #7AB3A3",
"~  c #7BB3A3",
"^  c #7BB4A3",
"/  c #7EB4A5",
"(  c #7FB5A5",
")  c #82B6A7",
"_  c #84B7A8",
"`  c #85B7A8",
"'  c #86B8A9",
"]  c #86B8AA",
"[  c #87B8AA",
"{  c #88B8AB",
"}  c #8CBAAD",
"|  c #8DBBAE",
" . c #8FBBAE",
".. c #90BCAF",
"X. c #91BCAF",
"o. c #92BCB0",
"O. c #95BDB2",
"+. c #97BEB3",
"@. c #98BFB4",
"#. c #99BFB4",
"$. c #9CC0B6",
"%. c #9EC1B7",
"&. c #A1C2B8",
"*. c #A3C3B9",
"=. c #A3C3BA",
"-. c #A5C3BB",
";. c #A5C4BB",
":. c #A8C5BC",
">. c #ACC6BF",
",. c #AEC7C0",
"<. c #B3C9C3",
"1. c #B4C9C3",
"2. c #B6CAC5",
"3. c #B7CAC5",
"4. c #BDCDC8",
"5. c #C0CECA",
"6. c #C3CFCC",
"7. c #D5D6D6",
/* pixels */
"                              ,.                                ",
"                            ` > d :.                            ",
"                        @.k . . O O F 3.                        ",
"                    ] l O . . . . O O $ B ..                    ",
"            %.^ m > O . . . . > . . . . . . 3 N W @.            ",
"    F c p $ . . . . . . . . . i . . . . . . . . . . . 6 f {     ",
"    O . . . . . . . . . . . L 6.5.c O . 3 . . . . . . . . F     ",
"    O . . . . . . . . . . . Q 7.7.N . T +.| : . . $ . . . F     ",
"    $ O . . . . . . . t . . ~ 7.7.N . >.7.7.> > r f 4 . . I     ",
"    q . . . . r . . . t . . ~ 7.7.N . >.7.7.2 l 7.7.... . L     ",
"    p . . . . r . . . t . . ~ 7.7.N . >.7.7.2 z 7.7.+.. O W     ",
"    n . . . . r . . L { ~ O ~ 7.7.N . ,.7.7.> l 7.7.... . `     ",
"    J . . c :.,.A . 4.7.7.O ~ 7.7.N . >.7.7.3 l 7.7.o.. . ;.    ",
"    ( . O A 7.7.E . 4.7.7.$ ~ 7.7.m . >.7.7.3 k 7.7.o.. >       ",
"    -.. . A 7.7.E . 4.7.7.O ~ 7.7.N . >.7.7.3 k 7.7.o.O c       ",
"      0 . A 7.7.E . 4.7.7.$ ~ 7.7.m . >.7.7.> r ` ..V . E       ",
"      A O Z 7.7.E O 4.7.7.O ~ 7.7.N . >.7.7.> . . 0 . . &.      ",
"      o.. Z 7.7.E O 4.7.7.O ~ 7.7.m . 8 l r - . . 5 . i         ",
"        q A 7.7.E . 4.7.7.O ~ 7.7.N . . r . . . . . . E         ",
"        W . . 8 . . 4.7.7.$ ~ 7.7.m . . 8 . . . . . &           ",
"          3 . . . . 4.7.7.O ~ 7.7.m . . . . . . . . F           ",
"          U . . . . f B k O ~ 7.7.N . . . . . . . ; <.          ",
"            q . . . O t . . ^ 7.7.N . . . . . . . U             ",
"            } . . . O t . . ^ 7.7.m . . . . . . p               ",
"              Z . . . r . . . s - O . . . . . ; &.              ",
"                d . . ; . . . i . . . . . . . )                 ",
"                  i . . . . . - . . . . . . P                   ",
"                  3.p . . . . . . . . . . H                     ",
"                      z . . . . . . . O (                       ",
"                        E $ . . . . r $.                        ",
"                          ;.k . ; L                             ",
"                              +.1.                              "
};
