/* XPM */
static char *_b47b44414c24651ebecab927c54b1a3MJDsKH46TnvKg7bO[] = {
/* columns rows colors chars-per-pixel */
"16 16 66 1 ",
"  c None",
". c #188D6B",
"X c #198D6C",
"o c #198E6C",
"O c #1A8E6C",
"+ c #1C8F6D",
"@ c #1F906F",
"# c #20906F",
"$ c #209070",
"% c #229171",
"& c #249272",
"* c #269373",
"= c #2A9475",
"- c #2B9476",
"; c #2B9576",
": c #2E9678",
"> c #2F9678",
", c #2F9679",
"< c #309679",
"1 c #319779",
"2 c #35987B",
"3 c #36997C",
"4 c #38997D",
"5 c #399A7E",
"6 c #3B9A7F",
"7 c #3C9B80",
"8 c #3D9B80",
"9 c #3F9C81",
"0 c #429D83",
"q c #459F84",
"w c #489F86",
"e c #48A086",
"r c #48A087",
"t c #49A087",
"y c #4DA289",
"u c #4EA28A",
"i c #4FA28A",
"p c #50A38B",
"a c #53A48C",
"s c #54A48D",
"d c #55A58E",
"f c #56A58E",
"g c #59A690",
"h c #60A994",
"j c #62AA95",
"k c #63AA96",
"l c #64AA96",
"z c #68AC98",
"x c #69AC99",
"c c #70AF9D",
"v c #74B19F",
"b c #76B1A1",
"n c #78B2A2",
"m c #79B3A2",
"M c #7CB4A3",
"N c #88B8AA",
"B c #89B9AB",
"V c #8CBAAC",
"C c #8FBBAE",
"Z c #96BEB2",
"A c #A0C2B8",
"S c #A8C5BD",
"D c #B0C8C1",
"F c #C0CECA",
"G c #C9D2CF",
"H c #D5D6D6",
/* pixels */
"       zm       ",
"     c7.ow      ",
" kft=..%...-tpb ",
" o.....AC1g...0 ",
" @.@.*.SZkH=N4q ",
" :.*.p1SZkH3Hfq ",
" 04F0GbSZkH3Hfi ",
" i7HtGmSZkH1Dtz ",
"  7HtGmSZ0N@#@  ",
"  tM1GbSZ.%..e  ",
"  k..VaSZ...@   ",
"   3.*.SZ...t   ",
"    %@.=@..1    ",
"    v%.o..=     ",
"      1o.3      ",
"       fg       "
};
