/* XPM */
static char *_1e68305ad75407ab8d8357c9be0a826uSOxx4L4bRcVF6K1[] = {
/* columns rows colors chars-per-pixel */
"64 64 172 2 ",
"   c None",
".  c #158C69",
"X  c #168D6A",
"o  c #178D6B",
"O  c #188D6B",
"+  c #198D6C",
"@  c #1A8E6C",
"#  c #1A8E6D",
"$  c #1B8E6D",
"%  c #1C8F6D",
"&  c #1C8F6E",
"*  c #1D8F6E",
"=  c #1E8F6E",
"-  c #1E906F",
";  c #1F906F",
":  c #209070",
">  c #219070",
",  c #229171",
"<  c #249272",
"1  c #259272",
"2  c #269273",
"3  c #269373",
"4  c #279373",
"5  c #279374",
"6  c #289374",
"7  c #299375",
"8  c #299474",
"9  c #2B9476",
"0  c #2C9576",
"q  c #2D9577",
"w  c #2F9678",
"e  c #309678",
"r  c #309679",
"t  c #309779",
"y  c #319779",
"u  c #32977A",
"i  c #33987A",
"p  c #33987B",
"a  c #34987B",
"s  c #35987B",
"d  c #35987C",
"f  c #36997C",
"g  c #399A7E",
"h  c #3A9A7E",
"j  c #3B9A7E",
"k  c #3E9C81",
"l  c #3F9C81",
"z  c #409D82",
"x  c #419D82",
"c  c #419D83",
"v  c #429E83",
"b  c #439E84",
"n  c #449E84",
"m  c #459E85",
"M  c #459F85",
"N  c #479F86",
"B  c #48A086",
"V  c #48A087",
"C  c #49A087",
"Z  c #4BA188",
"A  c #4CA189",
"S  c #4DA189",
"D  c #4DA289",
"F  c #4EA289",
"G  c #4EA28A",
"H  c #4FA28A",
"J  c #4FA38A",
"K  c #50A38B",
"L  c #53A48C",
"P  c #54A58D",
"I  c #56A58E",
"U  c #57A58F",
"Y  c #58A68F",
"T  c #5AA690",
"R  c #5AA790",
"E  c #5DA892",
"W  c #60A994",
"Q  c #61A994",
"!  c #62AA95",
"~  c #64AB96",
"^  c #66AB97",
"/  c #68AC98",
"(  c #69AC99",
")  c #6AAD99",
"_  c #6BAD9A",
"`  c #6CAE9B",
"'  c #6DAE9B",
"]  c #71B09E",
"[  c #74B09F",
"{  c #75B19F",
"}  c #75B1A0",
"|  c #76B1A0",
" . c #76B2A0",
".. c #77B2A1",
"X. c #78B2A1",
"o. c #78B2A2",
"O. c #7AB3A2",
"+. c #7AB3A3",
"@. c #7BB3A3",
"#. c #7DB4A4",
"$. c #82B6A7",
"%. c #86B8A9",
"&. c #87B8AA",
"*. c #89B9AB",
"=. c #8BB9AC",
"-. c #8CBAAC",
";. c #8DBAAE",
":. c #8EBBAE",
">. c #8FBBAE",
",. c #8FBBAF",
"<. c #90BBAF",
"1. c #90BCAF",
"2. c #92BCB0",
"3. c #93BDB1",
"4. c #94BDB1",
"5. c #96BEB2",
"6. c #96BEB3",
"7. c #97BEB3",
"8. c #9ABFB4",
"9. c #9ABFB5",
"0. c #9BC0B5",
"q. c #9DC1B6",
"w. c #9FC1B8",
"e. c #A1C2B9",
"r. c #A3C3BA",
"t. c #A4C3BA",
"y. c #A5C4BB",
"u. c #A7C4BC",
"i. c #A8C5BD",
"p. c #A9C5BD",
"a. c #AAC5BD",
"s. c #AAC6BE",
"d. c #ACC6BE",
"f. c #ADC6BF",
"g. c #ADC7BF",
"h. c #ADC7C0",
"j. c #AEC7C0",
"k. c #AFC7C1",
"l. c #B1C8C1",
"z. c #B1C8C2",
"x. c #B2C8C2",
"c. c #B3C9C3",
"v. c #B4C9C3",
"b. c #B6CAC4",
"n. c #B8CBC6",
"m. c #B9CBC6",
"M. c #BACCC7",
"N. c #BDCDC8",
"B. c #BECDC9",
"V. c #BFCECA",
"C. c #C0CECA",
"Z. c #C2CFCB",
"A. c #C3CFCC",
"S. c #C6D0CE",
"D. c #C7D0CE",
"F. c #C7D1CE",
"G. c #C8D1CE",
"H. c #C8D1CF",
"J. c #C9D1CF",
"K. c #CBD2D0",
"L. c #CDD3D1",
"P. c #CED3D2",
"I. c #D0D4D3",
"U. c #D2D5D5",
"Y. c #D3D5D5",
"T. c #D4D5D5",
"R. c #D5D6D6",
"E. c gray84",
"W. c #D6D6D7",
"Q. c #D7D6D7",
"!. c #D6D7D7",
"~. c #D7D7D7",
/* pixels */
"                                                                                                                                ",
"                                                            R.@.F.                                                              ",
"                                                          B.M O 2 r.R.                                                          ",
"                                                      R.%.2 X O O O ( F.                                                        ",
"                                                  R.u.l O O O O O O O 2 &.R.                                                    ",
"                                              R.z.K O O O O O O O O O O O y 1.R.                                                ",
"                                          R.q.D + O O O O O O O O O O O O O O 0 #.Z.R.                                          ",
"                                    R.n.@.y O O O O O O O O O O O O O O O O O O O O K <.H.R.                                    ",
"                            R.R.j...j O O O O O O O O O O O + X O O O O O O O O O O O O O M #.d.R.R.                            ",
"                R.R.R.K.y.@.K , O O X + O O O O O O O O O O O j O O O O O O O O O O O O O O + O = C { 4.z.~.R.R.R.R.            ",
"      R.z.i.:.{ ^ C 2 O O O + O O O O O O O O O O O O O O O O R O O O O O O O O O O O O O O O O O O O O O X y C Y @.[ R.        ",
"      R.2 O O O O O O O O O O O O O O O O O O O O O O O O O + R O O O O O O O O O O O O O O O O O O O O O O O O O O X A.        ",
"      R.+ X X O O O O O O O O O O O O O O O O O O O O O = i.i.M.i.i...O O O X + O ; O O O O O O O O O O O O O O O O O n.        ",
"      R.- + + O O O O O O O O O O O O O O O O O O O O O ; R.R.R.R.~.3.O O O X X O Z + X O O O O O O O O O O O O O O O z.        ",
"      R.+ + O O O O O O O O O O O O O O O O O O O O O O ; R.R.R.R.R.4.O O O i B M ' M M = + O O O O O O O O O O O O O j.        ",
"      R.+ O O O O O O O O O O O O O O O O O O O O O O O ; R.R.R.R.R.4.O O O $.R.R.R.R.R.y X O O O O 6 O O O O O O O + v.        ",
"      R.+ O O O O O O O O O O O O O O O O O O J O O O O ; R.R.R.R.R.3.O O O $.R.R.R.R.R.y O X + O O b O + + O O O O O Z.        ",
"      R.0 + O O O O O O O O + O O O O O O O O J O O O O ; R.R.R.R.R.3.O O O $.R.R.R.R.R.w O + w C C ( C N 5 O O O O O R.        ",
"      R.M O O O O O O O O o D O O O O O O O O J O O O O ; R.R.R.R.R.3.O O O $.R.R.R.R.R.y o O ..R.R.R.R.R.D O O O O O R.        ",
"      R.M O O O O O O O O X D + O O O O O O O J O O O O ; R.R.R.R.R.3.O O O $.R.R.R.W.T.y O . ..R.R.R.R.R.D O O O O . R.        ",
"        C O O O O O O O + X D O O O O O O O O J + O O O ; R.R.R.R.R.3.O O O $.R.R.R.R.R.w O O ..R.R.R.R.R.D O O O O 2 R.        ",
"        ' O O O O O O O O X D O O O O O O O O J X + O O ; R.R.R.R.R.3.O O O $.R.R.R.R.R.y O O ..R.R.R.R.R.D O O O O C R.        ",
"        @.O O O O O O O O X D O O O O O ; , ; P , = O O ; R.R.R.R.R.3.O O O $.R.R.R.R.R.w O . ..R.R.R.R.R.K + O O O D R.        ",
"        7.O O O O O O O O + D O O O O X r.R.R.R.R.R.= O ; R.R.R.R.R.3.O O o $.R.R.R.R.R.y O + ..R.R.R.R.R.D O O O O ..          ",
"        d.+ O O O O O Q +.+.4.+.@.+ O O t.R.R.R.R.R.= O ; R.R.R.R.R.3.O O O $.R.R.R.R.R.y o O ..R.R.R.R.R.K O O O O <.          ",
"        R.X O O O O + u.R.R.R.R.R.X O O t.R.R.R.R.R.= O ; R.R.R.R.R.3.O O O $.R.R.R.R.R.y O . ..R.R.R.R.R.D O O O O i.          ",
"        R.j O O O O O u.R.R.R.R.R.+ O O t.R.R.R.R.R.= O ; R.R.R.R.R.3.O O O $.R.R.R.R.R.w O O ..R.R.R.R.R.D O O O + R.          ",
"          Q O O O O O u.R.R.R.R.W.X O O t.R.R.R.R.R.= O ; R.R.R.R.R.3.O O O $.R.R.R.R.R.r O O | R.R.R.R.W.D O O O v R.          ",
"          &.O O O O O u.R.R.R.R.W.o O O t.R.R.R.R.R.= O ; R.R.R.R.R.3.O O O $.R.R.R.R.R.y O O { R.R.R.R.R.D + O O '             ",
"          n.O O O O O u.R.R.R.R.W.o O O t.R.R.R.R.R.= O ; R.R.R.R.R.3.O O O $.R.R.R.R.R.w O O ..R.R.R.R.R.D O O O 9.            ",
"          R.9 O O O O u.R.R.R.R.W.o + O t.R.R.R.R.R.= O ; R.R.R.R.R.3.O O O $.R.R.R.R.R.y . O ..R.R.R.R.R.D O O O H.            ",
"            Q O O O O u.R.R.R.R.W.o O O t.R.R.R.R.R.= O ; R.R.R.R.R.3.O O O $.R.R.R.R.R.y + O 6 f f T f f , O O v R.            ",
"            7.X O O O u.R.R.R.R.R.X O O t.R.R.R.R.R.= O ; R.R.R.R.R.3.O O O $.R.R.R.R.R.y . O O O O b O O O O O @.              ",
"            P.; O O O u.R.R.R.R.W.O O O t.R.R.R.R.R.= O ; R.R.R.R.R.3.O O O $.R.R.R.R.R.y O O O O O b O O O O O v.              ",
"            R.T O O O u.R.R.R.R.W.+ O O t.R.R.R.R.R.= O ; R.R.R.R.R.3.O O + d N D ] N D : O O O O O b O O O + y R.              ",
"              4.O O O u.R.R.R.R.W.X O O t.R.R.R.R.R.= O ; R.R.R.R.R.3.O O + + + + D + O O O O O O O w O O + X ..                ",
"              R.6 O O u.R.R.R.R.W.X + X t.R.R.R.R.R.= O ; R.R.R.R.R.3.O O O O O O Z O O O O O O O O O O O O + Z.                ",
"                ' O O u.R.R.R.R.W.+ O + t.R.R.R.R.R.= O ; R.R.R.R.R.3.O O O O O O Z O O O O O O O O O O O O D R.                ",
"                Z.O O O O X D O O O O O t.R.R.R.R.R.= O ; R.R.R.R.R.3.O O O O O O Z O O O O O O O O O O O O 7.                  ",
"                R.Y O O O O i O O O O O t.R.R.R.R.R.= O ; R.R.R.R.R.3.O O O O O O k O O O O O O O O O O O y R.                  ",
"                  z.X O O O O O O O O O t.R.R.R.R.R.; X ; R.R.R.R.R.3.O O O O O O O O O O O O O O O O O + =.                    ",
"                  R.D O O O O O O O O O t.R.R.R.R.~.; X ; R.R.R.R.R.3.O O O O O O O O O O O O O O O O O 0 Y.                    ",
"                    g.+ O O O O O O O O E { ..<...{ + O ; R.R.R.R.R.3.O O O O O O O O O O O O O O O O O :.                      ",
"                    R.P O O O O O O O O O O O K O O + O ; R.R.R.R.R.3.O O O O O O O O O O O O O O O X f R.                      ",
"                      B.; O O O O O O O O O O K O O O O ; R.R.R.R.R.3.O O O O O O O O O O O O O O O O t.                        ",
"                        { O O O O O O O O O O J O O O O ; R.R.R.R.R.3.O O O O O O O O O O O O O O O K R.                        ",
"                        I.f O O O O O O O O O J O O O O ; R.R.R.R.R.3.O O O O O O O O O O O O O X 2 A.                          ",
"                          u.X O O O O O O O O J O O O O ; R.R.R.R.R.3.O O O O O O O O O O O O O O 3.                            ",
"                            [ X O O O O O O O K O O O O O ; ; E ; ; = O O O O O O O O O O O O O P R.                            ",
"                            R.l O O O O O O + D O O O O O O O R X O X O O O O O O O O O O O O i H.                              ",
"                              B., + O O O O O 6 O O O O O O O R + O O O O O O O O O O O O O , z.                                ",
"                                j.= O O O O O O O O O O O O O Y O O O O O O O O O O O O O O 3.                                  ",
"                                  3.X O O O O O O O O O O O O 6 O O O O O O O O O O O O O *.R.                                  ",
"                                    :.O O O O O O O O O O O O O O O O O O O O O O O O O ' R.                                    ",
"                                    R.:.O O O O O O O O O O O O O O O O O O O O O O O ^ R.                                      ",
"                                      R.:.= O O O O O O O O O O O O O O O O O O O X { R.                                        ",
"                                        R.t.2 X O O O O O O O O O O O O O O O O O <.R.                                          ",
"                                            v.j O O O O O O O O O O O O O O X 2 i.R.                                            ",
"                                              P.( O O O O O O O O O O O O O v B.                                                ",
"                                                R.t.6 O O O O O O O O O ; @.W.                                                  ",
"                                                    H.^ O O O O O X O D B.                                                      ",
"                                                      R.i.k O O O f w.R.                                                        ",
"                                                          R.0.( <.R.                                                            ",
"                                                                                                                                "
};
