<?xml version="1.0" encoding="UTF-8"?>
<!DOCTYPE svg PUBLIC "-//W3C//DTD SVG 1.1//EN" "http://www.w3.org/Graphics/SVG/1.1/DTD/svg11.dtd">
<!-- Creator: CorelDRAW 2020 (64-Bit) -->
<svg xmlns="http://www.w3.org/2000/svg" xml:space="preserve" width="594mm" height="420mm" version="1.1" style="shape-rendering:geometricPrecision; text-rendering:geometricPrecision; image-rendering:optimizeQuality; fill-rule:evenodd; clip-rule:evenodd"
viewBox="0 0 59400 42000"
 xmlns:xlink="http://www.w3.org/1999/xlink"
 xmlns:xodm="http://www.corel.com/coreldraw/odm/2003">
 <defs>
  <style type="text/css">
   <![CDATA[
    .fil0 {fill:#188D6B}
    .fil1 {fill:#D5D6D6}
   ]]>
  </style>
 </defs>
 <g id="Слой_x0020_1">
  <metadata id="CorelCorpID_0Corel-Layer"/>
  <path class="fil0" d="M28942.7 13272.99c14.27,-272.92 -115.91,40.49 0,-128.97 121.15,68.86 -5.32,100.46 0,315.91l0 -315.91 996.63 -251.58 -265.93 16445.84 -436.73 -1188.85c6.85,366.03 -169.14,-190.18 -169.11,176.13 0.04,248.98 28.08,322.37 -124.86,443.56 -117.02,-169.25 -294,-439.81 -287.9,-792l-503.1 1430.73 -110.8 -16462.36 901.8 327.5zm-4741.77 5028.95c2.54,-500.81 349.41,971.76 492.4,745.51 143.38,57.76 273.56,-326.61 335.77,-135.82l-24.43 -422.54c2.32,587.79 -336.32,-814.36 -328.5,-226.82l881.82 -436.42 181.8 8502.32 -810.43 659.99c-67.43,280.55 246.62,-1842.21 249.62,-1267.33 147.3,-5005.91 -349.73,-503.03 -513.94,-392.75l174.84 306.7c-60.08,-655.25 -14.98,1907.46 -125.58,1353.7l-652.61 -528.49 -107.56 -8646.77 246.8 488.72zm-3790.33 -2347.73c143.63,55.83 22.01,-771.98 21.72,-562.85l-94.5 4027.76 1021.71 -700.2c-35.04,2095.5 73.81,3885.94 56.04,6021.9l-919.25 -517c-0.32,543.83 109.42,-402.25 -78.48,-315.23 -98.97,-175.7 -79.91,800.16 -80.02,547.62l-1056.28 245.3 64.86 -5678.67 1149.92 59.54 -67.35 -3546.96 -18.37 418.79zm13047.04 -2187.97c58.94,-267.6 -235.24,619.32 -28.36,453.61 206.92,165.71 -14.56,-305.02 44.31,-38.6l517.83 -197.46 -37.32 7611 -195.86 568.7 25.15 -1060.31c172.82,-4699.6 -110.66,119.51 -255.04,227.93 -100.85,-75.74 57.94,244.23 18.73,115.37l-182.59 -115.3 -838.26 871.8 381.08 -7902.04 550.33 -534.7zm4119.8 2974.19c172.67,43.27 418.26,-349.62 418.19,-84.84l25.9 278.98 163.39 -1057.27 235.53 5021.46 -506.94 -1030.45c-0.25,347.76 341.77,-712.58 297.17,-583.12 -34.14,99.07 -346.01,124.97 -417.72,186.73 -122.8,-90.08 94.57,-97.43 94.64,-294.32l-489.68 -205.14 146.45 1992.51 -660.92 -5100.02 790.1 432.67 -296.03 634.92 199.92 -192.11zm-22154.41 -3602.15l-33.5 894.77c2.03,6187.37 2223.54,12393.76 5755.55,16901.42 354.58,452.62 1204.44,1501.76 1589.13,1868.43l1496.94 1259.24c106.67,85.51 188.3,274.91 278.59,351.15 681.19,575.2 3864.01,2691.25 4399.18,2605.67 443.91,-71 2510.44,-1388.78 2977.43,-1702.51 477.27,-320.65 882.9,-599.77 1310.58,-946.86 102.28,-83.02 259.04,-214.05 360.1,-295.28 64.15,-51.52 154.09,-190.44 215.8,-244.35 3519.82,-3074.26 6015.53,-7305.19 7342.19,-12036.32 1082.11,-3859.05 1169.05,-6538.88 1063.91,-10218.34 -3351.71,-138.24 -7775.03,-1153.46 -10647.94,-2713.94 -1362.95,-740.3 -1500.01,-958.38 -2685.72,-1819.73 -219.12,165.36 -524.79,409.23 -779.51,583.15 -254.54,173.74 -607.94,343.48 -869.52,511.87 -3378.71,2174.99 -7249.78,3184 -11287.24,3495.45 -433.17,33.42 -484.44,-76.35 -485.97,1506.18z"/>
  <path class="fil1" d="M15561.73 13197.71c1.54,-1582.52 -33.07,-1393.48 400.1,-1426.91 4037.46,-311.44 8093.51,-1353.49 11472.23,-3528.48 261.57,-168.39 476.26,-318.29 730.77,-492.03 254.76,-173.92 441.52,-345.13 660.64,-510.48 1185.71,861.34 1309.54,993.56 2672.48,1733.86 2872.91,1560.48 7203.77,2549.26 10555.48,2687.5 105.13,3679.46 -28.04,6233.79 -1110.15,10092.83 -1326.66,4731.14 -3867.51,8952.01 -7387.32,12026.27 -149.26,130.36 -329.03,271.6 -484.54,397.74 -427.68,347.09 -813.51,652.65 -1290.77,973.3 -467,313.73 -2447.66,1532.44 -2891.53,1603.43 -677.77,108.39 -3835.54,-2160.22 -4598.53,-2771.87l-1444.07 -1318.67c-384.69,-366.67 -1241.15,-1349.78 -1595.77,-1802.4 -3531.97,-4507.66 -5687.45,-10661.18 -5689.48,-16848.55l0.46 -815.54zm-388.75 -1087.38c0,1935.1 -30.36,2639.02 137.2,4574.84 238.82,2759.13 839.27,4856.85 1691.66,7369.9 1076.4,3173.72 3231.52,6251.05 5431.41,8749.97l884.18 882.79c1218.1,1072.94 2534.17,2056.83 3967.65,2828.57 232.92,125.36 1385.7,707.05 1599.68,676.58 497.14,-70.74 2360.93,-1197.73 2943.37,-1586.02 1798.04,-1198.73 3037.12,-2445.13 4446.66,-4025.94 96.32,-108.03 170.88,-206.24 263.78,-325.22 990,-1267.97 890.82,-1151.92 1886.24,-2689.85 1178.18,-1820.24 2148.12,-4276.28 2794.88,-6312.03 465.25,-1464.47 1017.75,-4134.78 1134.62,-5661.55 157.15,-2053.08 139.35,-2607.66 139.35,-4663.28 0,-774.22 -415.65,-693.03 -1584.2,-771.83 -1664.65,-112.27 -4330.5,-656.97 -5885.99,-1182.04 -561.14,-189.4 -1189.2,-390.54 -1728.58,-627.42 -1301.12,-571.49 -1881.63,-818.15 -3088.71,-1623.31 -1953.98,-1303.4 -726.1,-1223.99 -3544.1,515.55 -451.01,278.37 -1069.52,593.14 -1543.29,812.69 -3013.93,1396.58 -6111.81,2078.41 -9448.46,2331.6 -421.76,32 -497.35,281.59 -497.35,726z"/>
  <rect class="fil1" x="27516.55" y="12518.77" width="2761.13" height="17227.34"/>
  <rect class="fil1" x="23394.67" y="17618.27" width="2761.13" height="9432.77"/>
  <rect class="fil1" x="19034.99" y="18410.94" width="2761.13" height="6473.47"/>
  <rect class="fil1" x="32087.61" y="13734.2" width="2761.13" height="9327.07"/>
  <polygon class="fil1" points="36447.28,15108.16 39208.42,15108.16 39208.42,21581.61 36447.28,21581.61 "/>
  <rect class="fil1" x="20337.8" y="15213.85" width="158.53" height="10423.6"/>
  <rect class="fil1" x="24676.18" y="14269.29" width="158.53" height="16566.78"/>
  <rect class="fil1" x="28784.17" y="11164.64" width="158.53" height="20596.2"/>
  <rect class="fil1" x="33424.91" y="12783.05" width="158.53" height="12953.56"/>
  <rect class="fil1" x="37792.74" y="14117.31" width="158.53" height="9545.1"/>
 </g>
</svg>
